<?xml version="1.0" standalone="no"?>
<!DOCTYPE svg PUBLIC "-//W3C//DTD SVG 20010904//EN"
 "http://www.w3.org/TR/2001/REC-SVG-20010904/DTD/svg10.dtd">
<svg version="1.0" xmlns="http://www.w3.org/2000/svg"
 width="500.000000pt" height="294.000000pt" viewBox="0 0 500.000000 294.000000"
 preserveAspectRatio="xMidYMid meet">

<g transform="translate(0.000000,294.000000) scale(0.100000,-0.100000)"
fill="#006400" stroke="none">
<path d="M1210 2245 c0 -34 28 -87 42 -79 6 4 8 21 5 41 -10 58 -47 87 -47 38z"/>
<path d="M1095 2231 c-29 -56 -13 -115 19 -69 18 25 21 83 6 93 -5 3 -16 -8
-25 -24z"/>
<path d="M1467 2253 c-13 -22 -24 -83 -16 -83 6 0 7 -4 4 -10 -3 -5 -1 -10 5
-10 16 0 38 58 32 86 -4 24 -16 31 -25 17z"/>
<path d="M1000 2211 c-11 -22 -14 -84 -3 -94 15 -16 33 18 33 64 0 51 -12 63
-30 30z"/>
<path d="M1305 2159 c-9 -16 -15 -45 -13 -62 l3 -32 23 35 c22 36 30 90 12 90
-5 0 -17 -14 -25 -31z"/>
<path d="M1572 2168 c-18 -36 -19 -104 -2 -93 20 13 40 65 34 90 -8 31 -17 32
-32 3z"/>
<path d="M1380 2129 c0 -42 21 -84 40 -84 16 0 16 48 0 53 -5 2 -7 9 -4 16 3
7 -4 21 -16 31 -20 18 -20 18 -20 -16z"/>
<path d="M805 2113 c1 -10 5 -26 10 -36 6 -15 10 -16 16 -5 7 10 9 9 9 -4 0
-10 2 -18 4 -18 2 0 11 -3 20 -6 12 -4 16 0 16 15 0 12 -4 21 -10 21 -5 0 -10
6 -10 13 0 8 -11 19 -25 25 -33 15 -33 15 -30 -5z"/>
<path d="M1128 2109 c-23 -32 -33 -85 -19 -93 18 -11 43 40 39 81 l-3 38 -17
-26z"/>
<path d="M1200 2103 c0 -15 10 -44 21 -63 l22 -35 10 24 c9 18 7 31 -8 59 -26
46 -45 53 -45 15z"/>
<path d="M920 2086 c0 -38 38 -95 50 -76 9 15 -4 75 -20 95 -20 24 -30 17 -30
-19z"/>
<path d="M1490 2106 c0 -8 -4 -16 -10 -18 -5 -1 -12 -23 -16 -48 l-6 -45 22
21 c24 23 41 104 21 104 -6 0 -11 -6 -11 -14z"/>
<path d="M1728 2079 c-27 -25 -44 -74 -30 -83 13 -8 51 31 58 59 10 41 0 50
-28 24z m12 -29 c0 -5 -5 -10 -11 -10 -5 0 -7 5 -4 10 3 6 8 10 11 10 2 0 4
-4 4 -10z"/>
<path d="M1025 2061 c-19 -37 -20 -94 -2 -89 28 10 50 99 27 113 -5 3 -16 -8
-25 -24z"/>
<path d="M643 2053 c-1 -24 36 -63 59 -63 21 0 22 4 6 33 -22 43 -64 62 -65
30z"/>
<path d="M1613 2023 c-6 -17 -6 -41 -1 -61 7 -28 11 -32 23 -22 22 19 18 110
-5 110 -4 0 -12 -12 -17 -27z"/>
<path d="M1876 2028 c-19 -30 -31 -78 -19 -78 16 0 43 35 53 69 11 38 -11 44
-34 9z"/>
<path d="M776 2032 c-8 -13 9 -91 23 -105 13 -13 16 -10 25 23 6 20 5 22 -4
10 -9 -12 -11 -10 -6 10 6 28 -26 81 -38 62z"/>
<path d="M527 2001 c-8 -37 6 -86 24 -86 8 0 14 12 16 28 1 19 -2 25 -10 20
-9 -5 -9 -3 0 8 9 11 7 19 -7 36 l-18 22 -5 -28z"/>
<path d="M1320 2015 c0 -21 48 -65 71 -65 24 0 14 35 -19 60 -30 24 -52 26
-52 5z"/>
<path d="M1511 1981 c-21 -29 -28 -61 -13 -61 18 0 51 32 60 60 10 26 9 30 -8
30 -10 0 -28 -13 -39 -29z"/>
<path d="M872 1993 c-17 -6 13 -57 45 -74 30 -16 38 -7 21 27 -15 31 -47 54
-66 47z"/>
<path d="M1776 1962 c-14 -27 -11 -82 4 -82 21 0 44 68 33 97 -8 21 -21 15
-37 -15z"/>
<path d="M1140 1965 c0 -22 50 -75 71 -75 26 0 24 14 -8 48 -33 34 -63 48 -63
27z"/>
<path d="M615 1950 c-6 -19 19 -85 36 -95 16 -10 19 15 8 59 -12 49 -34 67
-44 36z"/>
<path d="M1051 1939 c-26 -28 -33 -69 -12 -70 12 0 11 -2 -4 -9 -17 -7 -17 -9
-3 -9 11 -1 26 15 38 39 33 64 22 93 -19 49z"/>
<path d="M1687 1922 c-8 -9 -20 -29 -26 -45 -9 -24 -8 -27 9 -27 17 0 70 62
70 82 0 15 -37 8 -53 -10z"/>
<path d="M716 1908 c-17 -24 -22 -88 -8 -88 14 0 40 34 42 55 6 58 -8 71 -34
33z"/>
<path d="M1331 1909 c-23 -9 -23 -10 -6 -29 18 -20 60 -26 82 -12 15 9 5 25
-24 41 -25 13 -21 13 -52 0z"/>
<path d="M1562 1912 c-17 -12 -30 -62 -22 -92 l6 -25 18 27 c20 31 19 103 -2
90z"/>
<path d="M1842 1900 c-29 -28 -30 -61 0 -57 23 4 58 41 58 63 0 21 -33 17 -58
-6z"/>
<path d="M1960 1887 c-8 -7 -16 -18 -18 -25 -6 -34 68 -19 88 18 10 18 8 20
-22 20 -18 0 -40 -6 -48 -13z"/>
<path d="M1130 1860 c0 -23 42 -70 47 -53 5 15 -25 73 -37 73 -6 0 -10 -9 -10
-20z"/>
<path d="M460 1855 c0 -31 39 -84 63 -85 11 0 8 43 -6 61 -7 9 -22 21 -34 28
-19 10 -23 9 -23 -4z"/>
<path d="M912 1838 c-25 -27 -40 -78 -23 -78 21 0 61 49 61 75 0 31 -10 32
-38 3z"/>
<path d="M350 1838 c1 -28 73 -89 87 -74 3 3 0 18 -6 34 -16 38 -81 70 -81 40z"/>
<path d="M560 1845 c0 -20 33 -63 56 -73 32 -15 39 -11 25 16 -18 33 -81 77
-81 57z"/>
<path d="M1263 1833 c-28 -23 -41 -66 -19 -57 9 3 16 11 16 16 0 6 7 16 16 23
9 6 15 17 13 24 -3 9 -10 8 -26 -6z"/>
<path d="M767 1792 c-15 -15 -27 -37 -27 -48 0 -15 2 -16 9 -5 5 7 13 11 19 7
12 -7 52 40 52 60 0 23 -24 16 -53 -14z"/>
<path d="M1357 1813 c-4 -3 -1 -13 6 -22 11 -14 10 -14 -6 -2 -9 8 -21 11 -24
7 -11 -10 18 -26 48 -26 31 0 65 23 55 38 -8 13 -68 16 -79 5z"/>
<path d="M1686 1789 c-33 -39 -35 -63 -3 -53 22 7 46 33 59 66 12 31 -27 21
-56 -13z"/>
<path d="M1870 1813 c-24 -9 -50 -35 -44 -44 14 -23 104 2 104 28 0 7 -4 13
-9 13 -5 0 -15 2 -23 4 -7 3 -20 2 -28 -1z"/>
<path d="M1978 1782 c-9 -9 -21 -27 -27 -40 -23 -44 15 -59 43 -17 29 44 15
93 -16 57z"/>
<path d="M1061 1764 c-11 -15 -21 -33 -21 -40 0 -23 40 7 47 34 8 34 -2 37
-26 6z"/>
<path d="M301 1721 c-12 -8 -12 -12 -3 -24 17 -20 69 -27 89 -12 15 11 13 14
-15 29 -35 18 -51 20 -71 7z"/>
<path d="M430 1722 c0 -18 48 -52 73 -52 38 0 41 16 8 39 -29 21 -81 29 -81
13z"/>
<path d="M924 1722 c-18 -12 -44 -56 -44 -73 0 -22 29 -18 46 6 8 10 13 31 12
47 -1 15 -2 28 -3 28 0 0 -5 -4 -11 -8z"/>
<path d="M792 1697 c-12 -13 -22 -32 -22 -43 1 -17 4 -15 25 9 14 15 25 35 25
43 0 19 -3 18 -28 -9z"/>
<path d="M1250 1703 c-47 -32 -66 -73 -34 -73 20 0 74 54 74 74 0 20 -10 20
-40 -1z"/>
<path d="M1580 1690 c0 -16 5 -30 10 -30 6 0 10 14 10 30 0 17 -4 30 -10 30
-5 0 -10 -13 -10 -30z"/>
<path d="M583 1697 c-10 -16 25 -40 57 -40 47 0 58 18 23 37 -32 16 -71 17
-80 3z"/>
<path d="M1708 1699 c-10 -5 -22 -19 -28 -29 -15 -28 13 -27 40 2 31 34 25 49
-12 27z"/>
<path d="M1844 1686 c-6 -26 19 -96 35 -96 15 0 14 63 -1 95 -14 31 -26 32
-34 1z"/>
<path d="M1097 1672 c-18 -20 -23 -57 -7 -47 15 9 42 65 32 65 -5 0 -16 -8
-25 -18z"/>
<path d="M1494 1661 c1 -15 11 -41 21 -57 l20 -29 3 29 c4 34 -16 86 -33 86
-8 0 -12 -11 -11 -29z"/>
<path d="M1966 1659 c-34 -27 -33 -39 3 -39 28 0 81 33 81 51 0 17 -57 9 -84
-12z"/>
<path d="M2088 1650 c-24 -14 -44 -78 -29 -93 17 -17 50 29 51 71 0 17 -1 32
-2 32 -2 0 -11 -5 -20 -10z"/>
<path d="M362 1634 c-33 -23 -28 -44 11 -44 36 0 74 30 62 49 -9 16 -47 13
-73 -5z"/>
<path d="M1766 1619 c-14 -17 -26 -42 -26 -55 0 -22 2 -23 21 -14 19 11 49 65
49 90 0 19 -18 10 -44 -21z"/>
<path d="M3500 1375 c0 -151 -3 -275 -6 -275 -4 0 -23 18 -44 39 -29 30 -51
42 -94 52 -31 7 -56 16 -56 22 0 5 10 17 23 27 13 10 36 42 51 70 70 128 -7
249 -150 238 -27 -3 -71 -14 -96 -27 l-46 -22 -25 25 c-21 21 -29 23 -61 16
-71 -16 -86 -51 -25 -60 l34 -5 8 -165 c5 -101 4 -200 -3 -255 -18 -164 -20
-189 -14 -207 8 -28 22 -21 43 20 33 65 44 157 45 372 l1 205 37 18 c113 55
212 -2 188 -109 -10 -42 -42 -79 -118 -136 -62 -46 -59 -66 6 -48 92 24 188
-33 186 -111 -2 -77 -80 -129 -217 -145 -31 -3 -60 -10 -63 -15 -10 -17 50
-32 122 -31 101 2 167 29 226 95 l47 52 1 -98 0 -97 113 -1 c61 0 137 -1 167
-1 30 -1 241 0 468 1 l412 3 0 414 0 414 -580 0 -580 0 0 -275z m1128 250 c19
-7 17 -759 -3 -775 -25 -21 -48 -6 -102 65 -30 39 -74 96 -98 127 -25 32 -45
63 -45 69 0 16 79 142 124 199 43 54 45 64 10 56 -45 -12 -93 -51 -140 -115
-25 -34 -49 -59 -54 -56 -6 4 -10 35 -10 71 0 50 -3 64 -15 64 -17 0 -20 -32
-5 -61 17 -31 -14 -24 -66 16 -27 21 -57 35 -74 35 -16 0 -32 6 -37 12 -8 15
-8 265 1 288 5 13 41 15 254 12 136 -1 253 -5 260 -7z m-553 -5 c9 -14 10
-731 1 -757 -6 -20 -14 -23 -66 -23 -32 0 -62 5 -65 11 -4 6 13 38 37 72 l43
62 0 95 c0 85 -3 100 -27 141 -38 64 -112 121 -152 115 -17 -3 -52 -8 -77 -11
-53 -7 -123 -49 -156 -93 -29 -40 -53 -114 -53 -168 0 -54 32 -149 60 -179 11
-12 20 -27 20 -33 0 -16 -92 -16 -108 0 -9 9 -12 109 -12 388 0 207 3 380 7
383 10 11 541 8 548 -3z m107 -384 c25 -24 57 -60 72 -79 l28 -37 -56 -87
c-79 -122 -91 -137 -108 -131 -12 5 -15 40 -17 192 -2 177 -1 186 17 186 11 0
39 -20 64 -44z m-328 8 c9 -3 16 -13 16 -21 0 -8 8 -13 18 -12 33 3 39 -1 57
-41 37 -81 10 -194 -57 -242 -41 -29 -124 -36 -166 -14 -77 40 -108 162 -61
246 38 68 130 108 193 84z m559 -290 c37 -47 67 -91 67 -99 0 -11 -30 -15
-149 -17 -162 -3 -164 -2 -116 52 12 14 41 53 64 88 23 34 47 62 54 62 7 -1
42 -39 80 -86z"/>
<path d="M3867 1193 c-13 -12 -7 -43 8 -43 8 0 15 6 15 13 0 18 -15 38 -23 30z"/>
<path d="M1230 1576 c-30 -21 -51 -26 -134 -30 -110 -7 -135 -18 -97 -44 36
-25 100 -38 148 -31 24 3 47 3 51 0 14 -9 12 -453 -1 -508 -16 -63 -51 -86
-154 -102 -129 -20 -143 -23 -143 -30 0 -4 152 -8 337 -9 185 -1 334 0 331 4
-6 6 -147 28 -256 41 -30 3 -56 11 -58 18 -3 6 7 31 20 56 23 38 26 56 26 137
0 51 5 102 10 112 7 13 7 21 0 25 -5 3 -10 24 -10 45 0 35 4 43 39 64 51 32
59 46 27 46 -14 0 -29 -7 -34 -16 -8 -14 -10 -14 -21 0 -22 26 -9 59 25 69 18
5 37 20 42 32 12 25 72 50 103 42 10 -3 19 -1 19 3 0 24 -22 61 -46 76 -24 16
-27 16 -35 1 -12 -21 -94 -34 -113 -17 -8 6 -12 18 -9 26 8 22 -28 17 -67 -10z
m120 -129 c10 -4 8 -6 -7 -6 -12 -1 -24 3 -27 8 -7 11 6 24 13 13 3 -5 13 -12
21 -15z"/>
<path d="M882 1575 c-18 -21 -33 -65 -22 -65 9 0 60 62 60 73 0 12 -25 7 -38
-8z"/>
<path d="M1601 1564 c-25 -31 -27 -46 -6 -38 8 4 12 10 9 15 -3 5 1 6 9 3 8
-3 18 6 25 21 16 35 -9 34 -37 -1z"/>
<path d="M480 1575 c0 -18 26 -55 47 -64 51 -23 59 -3 16 41 -23 24 -63 39
-63 23z"/>
<path d="M640 1565 c-18 -21 -6 -30 41 -30 38 0 64 19 53 37 -9 14 -81 9 -94
-7z"/>
<path d="M1960 1541 c-15 -38 -4 -80 15 -60 14 15 18 31 16 67 -1 31 -16 28
-31 -7z"/>
<path d="M338 1543 c-43 -11 -1 -43 56 -43 20 0 36 4 36 9 0 22 -57 44 -92 34z"/>
<path d="M206 1531 c-17 -7 -17 -9 9 -29 32 -25 75 -29 75 -8 0 16 -37 46 -55
45 -5 0 -19 -4 -29 -8z"/>
<path d="M2076 1513 c-13 -32 35 -43 72 -17 30 21 19 34 -28 34 -26 0 -40 -5
-44 -17z"/>
<path d="M917 1483 c-18 -35 -22 -63 -8 -63 18 0 32 30 29 62 l-3 33 -18 -32z"/>
<path d="M1630 1491 c-13 -25 -13 -68 -1 -76 14 -8 31 28 31 64 0 35 -14 40
-30 12z"/>
<path d="M1792 1473 c-18 -18 -22 -28 -14 -31 18 -6 73 18 66 29 -3 5 0 9 5 9
6 0 11 5 11 10 0 20 -41 9 -68 -17z"/>
<path d="M700 1460 c-14 -27 9 -27 41 0 l24 19 -27 1 c-17 0 -31 -7 -38 -20z"/>
<path d="M521 1451 c-10 -6 -5 -11 18 -16 29 -6 51 -1 40 9 -12 10 -46 14 -58
7z"/>
<path d="M335 1423 c8 -34 32 -73 45 -73 39 0 -4 98 -44 100 -4 0 -5 -12 -1
-27z"/>
<path d="M445 1430 c-7 -29 10 -84 24 -76 5 4 7 -4 3 -16 -3 -14 -2 -19 6 -14
19 12 14 81 -7 107 l-19 24 -7 -25z"/>
<path d="M1570 1411 c0 -20 -8 -35 -25 -48 -24 -17 -24 -19 -10 -41 9 -12 23
-22 31 -22 12 0 14 -27 14 -157 0 -198 15 -320 41 -328 11 -4 23 -3 29 0 6 4
10 84 10 210 l0 204 28 19 c46 33 67 34 116 11 43 -22 46 -22 65 -5 11 10 31
16 47 14 35 -4 40 12 14 40 -25 26 -45 29 -36 5 5 -16 5 -16 -6 -3 -7 9 -32
21 -54 28 -27 8 -44 19 -47 32 -4 15 -13 20 -39 20 -31 -1 -32 -1 -13 -15 17
-13 17 -17 5 -29 -8 -8 -27 -18 -42 -21 -24 -6 -29 -3 -38 19 -6 18 -20 28
-40 32 -23 5 -30 12 -30 30 0 12 -4 26 -10 29 -6 4 -10 -6 -10 -24z"/>
<path d="M2020 1431 c0 -13 41 -41 60 -41 8 0 22 5 30 10 13 8 12 11 -5 24
-22 17 -85 22 -85 7z"/>
<path d="M1135 1421 c-3 -5 -1 -12 5 -16 5 -3 10 1 10 9 0 18 -6 21 -15 7z"/>
<path d="M1880 1412 c0 -5 8 -17 19 -26 22 -20 91 -34 91 -19 0 15 -26 34 -34
25 -4 -4 -6 0 -4 8 2 11 -7 16 -34 18 -21 2 -38 -1 -38 -6z"/>
<path d="M961 1401 c-7 -5 -2 -12 14 -19 27 -12 50 -8 40 7 -7 13 -41 20 -54
12z"/>
<path d="M561 1371 c-16 -10 -6 -31 15 -31 9 0 25 5 36 11 17 9 18 13 7 20
-18 11 -40 11 -58 0z"/>
<path d="M241 1351 c-11 -7 -7 -13 17 -25 36 -19 68 -21 78 -4 16 26 -61 50
-95 29z"/>
<path d="M625 1295 c-32 -31 -32 -49 -2 -39 29 8 57 34 57 51 0 21 -29 15 -55
-12z"/>
<path d="M2079 1293 c-113 -58 -158 -194 -108 -328 25 -66 73 -107 149 -125
62 -15 143 6 189 49 37 35 41 56 9 47 -148 -42 -203 -41 -245 8 -22 26 -40
106 -28 125 3 6 25 11 48 11 76 1 268 27 279 38 9 9 9 18 0 34 -6 13 -14 33
-17 46 -9 31 -61 89 -96 108 -45 23 -118 18 -180 -13z m134 -37 c33 -13 67
-54 67 -79 0 -19 -208 -53 -224 -37 -17 17 29 95 67 114 39 19 49 19 90 2z"/>
<path d="M2582 1294 c-105 -52 -156 -183 -121 -309 7 -25 29 -58 58 -86 60
-61 127 -78 210 -53 53 15 111 60 111 84 0 13 -7 12 -99 -14 -107 -31 -183 8
-196 99 -4 24 -4 48 -1 53 3 5 51 13 106 17 130 9 221 22 232 33 10 10 -42
115 -75 150 -55 59 -139 69 -225 26z m131 -37 c38 -16 53 -33 62 -68 6 -25 6
-26 -101 -43 -72 -12 -110 -14 -117 -7 -14 14 7 62 41 94 43 39 66 44 115 24z"/>
<path d="M332 1260 c-34 -21 -41 -37 -19 -46 21 -8 110 38 96 50 -16 15 -48
13 -77 -4z"/>
<path d="M937 1269 c7 -7 15 -10 18 -7 3 3 -2 9 -12 12 -14 6 -15 5 -6 -5z"/>
<path d="M1405 1270 c-3 -5 -1 -10 4 -10 6 0 11 5 11 10 0 6 -2 10 -4 10 -3 0
-8 -4 -11 -10z"/>
<path d="M716 1249 c-14 -11 -26 -25 -26 -30 0 -16 40 -9 60 11 40 40 13 56
-34 19z"/>
<path d="M456 1219 c-28 -33 -34 -59 -13 -59 26 0 57 41 57 74 0 24 -16 19
-44 -15z"/>
<path d="M791 1206 c-13 -14 -21 -33 -19 -46 3 -22 3 -22 31 5 25 26 37 65 19
65 -5 0 -19 -11 -31 -24z"/>
<path d="M575 1174 c-14 -15 -25 -30 -25 -35 0 -4 -3 -15 -6 -24 -8 -19 13
-17 37 5 17 15 36 80 24 80 -3 0 -17 -12 -30 -26z"/>
<path d="M2902 1102 c-7 -5 -10 -16 -6 -25 5 -13 10 -14 26 -6 28 15 34 4 12
-27 -11 -15 -23 -34 -29 -43 -5 -9 -18 -22 -27 -29 -24 -18 -22 -31 6 -38 26
-6 110 25 86 33 -8 2 -21 6 -28 9 -9 3 -6 14 13 41 28 41 31 63 13 81 -14 14
-47 16 -66 4z"/>
<path d="M2399 695 c-3 -2 -30 -8 -60 -12 -45 -7 -54 -12 -54 -28 0 -15 8 -21
33 -23 17 -2 32 -6 32 -9 0 -3 -18 -25 -40 -49 -35 -38 -49 -64 -36 -64 2 0
27 31 55 69 42 57 58 70 87 76 20 3 38 4 41 1 3 -3 -13 -28 -36 -57 -48 -60
-56 -91 -16 -65 31 20 46 21 39 1 -10 -25 22 -17 40 10 20 31 20 39 0 31 -31
-12 -33 6 -4 46 17 23 30 44 30 47 0 17 -98 39 -111 26z"/>
<path d="M3858 682 c-30 -18 -38 -52 -13 -52 9 0 27 7 41 16 17 12 38 15 69
12 38 -5 45 -3 45 12 0 10 -7 21 -16 24 -30 12 -99 5 -126 -12z"/>
<path d="M2870 674 c-19 -8 -45 -25 -57 -36 -28 -26 -40 -82 -23 -103 19 -22
40 -18 40 8 0 13 17 42 40 66 32 34 45 42 64 37 17 -4 26 -1 30 10 14 36 -31
45 -94 18z"/>
<path d="M3240 580 c-52 -60 -96 -114 -98 -120 -7 -21 39 -9 47 13 5 12 26 41
48 63 53 58 106 131 101 144 -1 5 -46 -40 -98 -100z"/>
<path d="M3696 641 c-21 -21 -51 -41 -67 -45 -48 -9 -92 -66 -51 -66 10 0 23
-5 28 -10 8 -8 19 1 37 27 15 21 45 56 67 78 22 21 40 43 40 47 0 17 -17 7
-54 -31z"/>
<path d="M3385 629 c-16 -10 -26 -19 -22 -19 5 0 -3 -14 -17 -31 -48 -57 -28
-67 22 -11 33 36 54 52 71 52 24 0 24 0 5 15 -23 18 -22 18 -59 -6z"/>
<path d="M4560 640 c-8 -5 -23 -11 -32 -14 -10 -3 -15 -11 -13 -19 3 -7 -6
-24 -20 -37 -25 -23 -33 -50 -16 -50 5 0 15 10 24 23 28 43 70 77 96 78 17 1
20 3 9 6 -10 2 -18 9 -18 14 0 11 -10 11 -30 -1z"/>
<path d="M3896 611 c-16 -17 -15 -18 9 -13 30 5 40 18 21 25 -8 3 -21 -2 -30
-12z"/>
<path d="M2582 593 c-25 -23 -38 -73 -18 -73 20 0 37 25 30 43 -4 11 1 16 17
19 12 2 24 9 27 16 6 18 -33 15 -56 -5z"/>
<path d="M3458 593 c-23 -27 -32 -73 -14 -73 18 0 28 16 30 44 1 14 9 22 24
24 12 2 22 8 22 13 0 16 -46 10 -62 -8z"/>
<path d="M4072 594 c-13 -9 -21 -22 -18 -30 3 -7 1 -16 -4 -19 -15 -9 -12 -25
4 -25 15 0 30 27 27 48 -1 6 3 13 9 13 5 1 15 2 22 3 6 0 13 7 16 14 5 17 -29
15 -56 -4z"/>
<path d="M2963 555 c1 -42 19 -46 36 -8 10 21 9 28 -1 34 -26 17 -36 9 -35
-26z"/>
<path d="M3084 565 c-30 -31 -25 -43 18 -41 28 1 33 6 39 34 5 27 4 32 -13 32
-10 0 -30 -11 -44 -25z"/>
<path d="M3939 568 c-24 -18 -43 -23 -111 -27 -10 -1 -18 -8 -18 -17 0 -14 10
-16 64 -12 69 4 106 25 106 60 0 23 -8 22 -41 -4z"/>
<path d="M4192 567 c-31 -32 -27 -45 10 -42 31 2 54 25 26 25 -7 0 -2 9 12 20
l25 20 -26 0 c-14 0 -35 -10 -47 -23z"/>
<path d="M4593 564 c-16 -25 -16 -27 1 -36 15 -9 16 -12 3 -26 -22 -26 -29
-42 -19 -42 5 0 29 25 52 56 34 45 38 55 21 49 -15 -5 -21 -2 -21 9 0 24 -17
19 -37 -10z"/>
<path d="M4326 561 c-22 -25 -13 -45 14 -31 13 7 21 7 25 0 11 -18 35 -11 44
13 12 30 3 42 -18 23 -22 -20 -42 -21 -35 -1 9 21 -10 19 -30 -4z"/>
</g>
</svg>
